<?xml version="1.0" encoding="UTF-8"?>
<svg xmlns="http://www.w3.org/2000/svg" width="1500" height="2600" viewBox="0 0 1500 2600">
  <defs>
    <pattern id="grid" width="28" height="28" patternUnits="userSpaceOnUse">
      <path d="M 28 0 L 0 0 0 28" fill="none" stroke="#e5e7eb" stroke-width="1"/>
    </pattern>
    <marker id="arrow" markerWidth="12" markerHeight="12" refX="9" refY="3" orient="auto" markerUnits="strokeWidth">
      <path d="M0,0 L0,6 L9,3 z" fill="#111827"/>
    </marker>
  </defs>
  <rect width="100%" height="100%" fill="#ffffff"/>
  <rect width="100%" height="100%" fill="url(#grid)" opacity="0.65"/>
  <style>
    .section-title{font:700 28px Arial, sans-serif;fill:#0f172a;text-anchor:middle}
    .actor circle,.actor line{fill:none;stroke:#111827;stroke-width:4;stroke-linecap:round}
    .actor-label{font:700 24px Arial, sans-serif;fill:#111827;text-anchor:middle}
    .usecase{fill:#eef8ff;stroke:#1f6f9f;stroke-width:3}
    .login{fill:#ffffff;stroke:#334155;stroke-width:3}
    .systemcase{fill:#fff7ed;stroke:#c2410c;stroke-width:3}
    .label{font:600 19px Arial, sans-serif;fill:#0f172a;text-anchor:middle;dominant-baseline:middle}
    .line{stroke:#4b5563;stroke-width:2.3;fill:none}
    .dash{stroke:#64748b;stroke-width:2;stroke-dasharray:8 7;fill:none}
    .separator{stroke:#111827;stroke-width:5;marker-end:url(#arrow)}
  </style>
  <text class="section-title" x="750" y="55">Diagramme de cas d'utilisation - DR-DOCSCOL</text>
  <g><text class="section-title" x="750" y="125">Espace eleve</text><g class="actor"><circle cx="150" cy="200" r="22"/><line x1="150" y1="222" x2="150" y2="295"/><line x1="95" y1="252" x2="205" y2="252"/><line x1="150" y1="295" x2="100" y2="360"/><line x1="150" y1="295" x2="200" y2="360"/><text class="actor-label" x="150" y="405">Eleve</text></g><line class="line" x1="215" y1="252" x2="415" y2="215"/><ellipse class="usecase" cx="645" cy="215" rx="220" ry="27.5"/><text class="label" x="645" y="215"><tspan x="645" dy="0">Activer son compte</tspan></text><line class="dash" x1="875" y1="215" x2="1115" y2="340"/><line class="line" x1="215" y1="252" x2="415" y2="293"/><ellipse class="usecase" cx="645" cy="293" rx="220" ry="27.5"/><text class="label" x="645" y="293"><tspan x="645" dy="0">Consulter ses documents</tspan></text><line class="dash" x1="875" y1="293" x2="1115" y2="340"/><line class="line" x1="215" y1="252" x2="415" y2="371"/><ellipse class="usecase" cx="645" cy="371" rx="220" ry="27.5"/><text class="label" x="645" y="371"><tspan x="645" dy="0">Demander un releve</tspan></text><line class="dash" x1="875" y1="371" x2="1115" y2="340"/><line class="line" x1="215" y1="252" x2="415" y2="449"/><ellipse class="usecase" cx="645" cy="449" rx="220" ry="27.5"/><text class="label" x="645" y="449"><tspan x="645" dy="0">Demander un duplicata</tspan></text><line class="dash" x1="875" y1="449" x2="1115" y2="340"/><line class="line" x1="215" y1="252" x2="415" y2="527"/><ellipse class="usecase" cx="645" cy="527" rx="220" ry="27.5"/><text class="label" x="645" y="527"><tspan x="645" dy="0">Payer un duplicata</tspan></text><line class="dash" x1="875" y1="527" x2="1115" y2="340"/><line class="line" x1="215" y1="252" x2="415" y2="605"/><ellipse class="usecase" cx="645" cy="605" rx="220" ry="27.5"/><text class="label" x="645" y="605"><tspan x="645" dy="0">Prendre rendez-vous</tspan></text><line class="dash" x1="875" y1="605" x2="1115" y2="340"/><line class="line" x1="215" y1="252" x2="415" y2="683"/><ellipse class="usecase" cx="645" cy="683" rx="220" ry="27.5"/><text class="label" x="645" y="683"><tspan x="645" dy="0">Annuler un rendez-vous</tspan></text><line class="dash" x1="875" y1="683" x2="1115" y2="340"/><line class="line" x1="215" y1="252" x2="415" y2="761"/><ellipse class="usecase" cx="645" cy="761" rx="220" ry="27.5"/><text class="label" x="645" y="749"><tspan x="645" dy="0">Consulter notifications</tspan><tspan x="645" dy="25">et recus</tspan></text><line class="dash" x1="875" y1="761" x2="1115" y2="340"/><ellipse class="login" cx="1240" cy="340" rx="125" ry="30"/><text class="label" x="1240" y="340"><tspan x="1240" dy="0">Se connecter</tspan></text></g>
<g><text class="section-title" x="750" y="815">Espace administrateur OBC / DECC</text><g class="actor"><circle cx="150" cy="890" r="22"/><line x1="150" y1="912" x2="150" y2="985"/><line x1="95" y1="942" x2="205" y2="942"/><line x1="150" y1="985" x2="100" y2="1050"/><line x1="150" y1="985" x2="200" y2="1050"/><text class="actor-label" x="150" y="1095">Admin OBC / DECC</text></g><line class="line" x1="215" y1="942" x2="415" y2="905"/><ellipse class="usecase" cx="645" cy="905" rx="220" ry="27.5"/><text class="label" x="645" y="905"><tspan x="645" dy="0">Importer les eleves</tspan></text><line class="dash" x1="875" y1="905" x2="1115" y2="1030"/><line class="line" x1="215" y1="942" x2="415" y2="983"/><ellipse class="usecase" cx="645" cy="983" rx="220" ry="27.5"/><text class="label" x="645" y="983"><tspan x="645" dy="0">Verifier examens valides</tspan></text><line class="dash" x1="875" y1="983" x2="1115" y2="1030"/><line class="line" x1="215" y1="942" x2="415" y2="1061"/><ellipse class="usecase" cx="645" cy="1061" rx="220" ry="27.5"/><text class="label" x="645" y="1061"><tspan x="645" dy="0">Publier un document</tspan></text><line class="dash" x1="875" y1="1061" x2="1115" y2="1030"/><line class="line" x1="215" y1="942" x2="415" y2="1139"/><ellipse class="usecase" cx="645" cy="1139" rx="220" ry="27.5"/><text class="label" x="645" y="1139"><tspan x="645" dy="0">Traiter un duplicata</tspan></text><line class="dash" x1="875" y1="1139" x2="1115" y2="1030"/><line class="line" x1="215" y1="942" x2="415" y2="1217"/><ellipse class="usecase" cx="645" cy="1217" rx="220" ry="27.5"/><text class="label" x="645" y="1217"><tspan x="645" dy="0">Consulter rendez-vous</tspan></text><line class="dash" x1="875" y1="1217" x2="1115" y2="1030"/><line class="line" x1="215" y1="942" x2="415" y2="1295"/><ellipse class="usecase" cx="645" cy="1295" rx="220" ry="27.5"/><text class="label" x="645" y="1295"><tspan x="645" dy="0">Confirmer retrait antenne</tspan></text><line class="dash" x1="875" y1="1295" x2="1115" y2="1030"/><line class="line" x1="215" y1="942" x2="415" y2="1373"/><ellipse class="usecase" cx="645" cy="1373" rx="220" ry="27.5"/><text class="label" x="645" y="1361"><tspan x="645" dy="0">Consulter paiements</tspan><tspan x="645" dy="25">et recus</tspan></text><line class="dash" x1="875" y1="1373" x2="1115" y2="1030"/><line class="line" x1="215" y1="942" x2="415" y2="1451"/><ellipse class="usecase" cx="645" cy="1451" rx="220" ry="27.5"/><text class="label" x="645" y="1451"><tspan x="645" dy="0">Envoyer notifications</tspan></text><line class="dash" x1="875" y1="1451" x2="1115" y2="1030"/><ellipse class="login" cx="1240" cy="1030" rx="125" ry="30"/><text class="label" x="1240" y="1030"><tspan x="1240" dy="0">Se connecter</tspan></text></g>
<g><text class="section-title" x="750" y="1505">Espace agent centre d'examen</text><g class="actor"><circle cx="150" cy="1580" r="22"/><line x1="150" y1="1602" x2="150" y2="1675"/><line x1="95" y1="1632" x2="205" y2="1632"/><line x1="150" y1="1675" x2="100" y2="1740"/><line x1="150" y1="1675" x2="200" y2="1740"/><text class="actor-label" x="150" y="1785">Agent centre</text></g><line class="line" x1="215" y1="1632" x2="415" y2="1595"/><ellipse class="usecase" cx="645" cy="1595" rx="220" ry="27.5"/><text class="label" x="645" y="1583"><tspan x="645" dy="0">Consulter les rendez-vous</tspan><tspan x="645" dy="25">transmis</tspan></text><line class="dash" x1="875" y1="1595" x2="1115" y2="1720"/><line class="line" x1="215" y1="1632" x2="415" y2="1673"/><ellipse class="usecase" cx="645" cy="1673" rx="220" ry="27.5"/><text class="label" x="645" y="1661"><tspan x="645" dy="0">Confirmer le retrait</tspan><tspan x="645" dy="25">effectue</tspan></text><line class="dash" x1="875" y1="1673" x2="1115" y2="1720"/><ellipse class="login" cx="1240" cy="1720" rx="125" ry="30"/><text class="label" x="1240" y="1720"><tspan x="1240" dy="0">Se connecter</tspan></text></g>
<g><text class="section-title" x="750" y="1875">Systeme interne</text><g class="actor"><circle cx="150" cy="1950" r="22"/><line x1="150" y1="1972" x2="150" y2="2045"/><line x1="95" y1="2002" x2="205" y2="2002"/><line x1="150" y1="2045" x2="100" y2="2110"/><line x1="150" y1="2045" x2="200" y2="2110"/><text class="actor-label" x="150" y="2155">Systeme</text></g><line class="line" x1="215" y1="2002" x2="415" y2="1965"/><ellipse class="systemcase" cx="645" cy="1965" rx="220" ry="27.5"/><text class="label" x="645" y="1965"><tspan x="645" dy="0">Router OBC / DECC</tspan></text><line class="line" x1="215" y1="2002" x2="415" y2="2043"/><ellipse class="systemcase" cx="645" cy="2043" rx="220" ry="27.5"/><text class="label" x="645" y="2031"><tspan x="645" dy="0">Determiner centre</tspan><tspan x="645" dy="25">ou antenne</tspan></text><line class="line" x1="215" y1="2002" x2="415" y2="2121"/><ellipse class="systemcase" cx="645" cy="2121" rx="220" ry="27.5"/><text class="label" x="645" y="2109"><tspan x="645" dy="0">Transmettre RDV a</tspan><tspan x="645" dy="25">l'agent centre</tspan></text><line class="line" x1="215" y1="2002" x2="415" y2="2199"/><ellipse class="systemcase" cx="645" cy="2199" rx="220" ry="27.5"/><text class="label" x="645" y="2187"><tspan x="645" dy="0">Envoyer email</tspan><tspan x="645" dy="25">et notification</tspan></text><line class="line" x1="215" y1="2002" x2="415" y2="2277"/><ellipse class="systemcase" cx="645" cy="2277" rx="220" ry="27.5"/><text class="label" x="645" y="2277"><tspan x="645" dy="0">Journaliser actions</tspan></text><line class="line" x1="215" y1="2002" x2="415" y2="2355"/><ellipse class="systemcase" cx="645" cy="2355" rx="220" ry="27.5"/><text class="label" x="645" y="2343"><tspan x="645" dy="0">Confirmer paiement</tspan><tspan x="645" dy="25">webhook</tspan></text></g>
  <line class="separator" x1="150" y1="390" x2="150" y2="720"/>
  <line class="separator" x1="150" y1="1080" x2="150" y2="1410"/>
  <line class="separator" x1="150" y1="1695" x2="150" y2="1810"/>
  <text x="750" y="2540" font-family="Arial" font-size="24" font-style="italic" fill="#1f6f9f" text-anchor="middle">Figure : Diagramme de cas d'utilisation</text>
</svg>