<svg xmlns="http://www.w3.org/2000/svg" width="820" height="640" viewBox="0 0 820 640">
    <defs>
      <style>
        .title { fill: #1F2937; font: 700 17px Arial, Helvetica, sans-serif; }
        .note { fill: #64748B; font: 11px Arial, Helvetica, sans-serif; }
        .lbl { fill: #111827; font: 12px Arial, Helvetica, sans-serif; }
        .actor { fill: #111827; font: 11px Arial, Helvetica, sans-serif; }
        .sys { fill: #059669; font: 700 14px Arial, Helvetica, sans-serif; }
        .pkg { fill: #059669; font: 700 12px Arial, Helvetica, sans-serif; }
        .guard { fill: #374151; font: 10px Arial, Helvetica, sans-serif; font-style: italic; }
      </style>
      <marker id="arr" markerWidth="8" markerHeight="8" refX="6" refY="4" orient="auto">
        <polygon points="0,0 8,4 0,8" fill="#374151"/>
      </marker>
    </defs>
    <rect width="820" height="640" fill="#FFFFFF"/>
    <text x="410" y="28" text-anchor="middle" class="title">Diagramme de packages — DR-DOCSCOL</text>
    <text x="410" y="46" text-anchor="middle" class="note">Découpage fonctionnel aligné sur app/auth, app/dashboard, app/admin, app/centre-examen, app/consultation</text>
    <rect x="60" y="140" width="175" height="52" rx="10" ry="10" fill="#F8FAFC" stroke="#111827" stroke-width="1.6"/><text x="147.5" y="164" text-anchor="middle" class="lbl">&lt;&lt;PKG-PUBLIC&gt;&gt;</text><text x="147.5" y="178" text-anchor="middle" class="lbl">Consultation publique</text>
<rect x="260" y="120" width="175" height="64" rx="10" ry="10" fill="#F8FAFC" stroke="#111827" stroke-width="1.6"/><text x="347.5" y="143" text-anchor="middle" class="lbl">&lt;&lt;PKG-ELEVE&gt;&gt;</text><text x="347.5" y="157" text-anchor="middle" class="lbl">Espace élève</text><text x="347.5" y="171" text-anchor="middle" class="lbl">(dashboard)</text>
<rect x="480" y="120" width="175" height="64" rx="10" ry="10" fill="#F8FAFC" stroke="#111827" stroke-width="1.6"/><text x="567.5" y="143" text-anchor="middle" class="lbl">&lt;&lt;PKG-ADMIN&gt;&gt;</text><text x="567.5" y="157" text-anchor="middle" class="lbl">Administration</text><text x="567.5" y="171" text-anchor="middle" class="lbl">OBC / DECC</text>
<rect x="620" y="160" width="175" height="52" rx="10" ry="10" fill="#F8FAFC" stroke="#111827" stroke-width="1.6"/><text x="707.5" y="184" text-anchor="middle" class="lbl">&lt;&lt;PKG-AGENT&gt;&gt;</text><text x="707.5" y="198" text-anchor="middle" class="lbl">Agent centre</text>
<rect x="315" y="300" width="190" height="52" rx="10" ry="10" fill="#F8FAFC" stroke="#111827" stroke-width="1.6"/><text x="410" y="324" text-anchor="middle" class="lbl">&lt;&lt;PKG-AUTH&gt;&gt;</text><text x="410" y="338" text-anchor="middle" class="lbl">Authentification &amp; comptes</text>
<rect x="315" y="420" width="190" height="64" rx="10" ry="10" fill="#FFFBEB" stroke="#059669" stroke-width="1.6"/><text x="410" y="450" text-anchor="middle" class="lbl">&lt;&lt;PKG-CORE&gt;&gt;</text><text x="410" y="464" text-anchor="middle" class="lbl">Services métier transverses</text>
<line x1="147" y1="192" x2="147" y2="300" stroke="#374151" stroke-width="1.4" marker-end="url(#arr)" stroke-dasharray="6 4"/><text x="151" y="240" class="guard">«use»</text>
<line x1="347" y1="184" x2="347" y2="300" stroke="#374151" stroke-width="1.4" marker-end="url(#arr)" stroke-dasharray="6 4"/><text x="351" y="236" class="guard">«use»</text>
<line x1="567" y1="184" x2="567" y2="300" stroke="#374151" stroke-width="1.4" marker-end="url(#arr)" stroke-dasharray="6 4"/><text x="571" y="236" class="guard">«use»</text>
<line x1="707" y1="212" x2="707" y2="300" stroke="#374151" stroke-width="1.4" marker-end="url(#arr)" stroke-dasharray="6 4"/><text x="711" y="250" class="guard">«use»</text>
<line x1="147" y1="192" x2="347" y2="300" stroke="#374151" stroke-width="1.4" marker-end="url(#arr)" stroke-dasharray="6 4"/>
<line x1="347" y1="184" x2="315" y2="326" stroke="#374151" stroke-width="1.4" marker-end="url(#arr)" stroke-dasharray="6 4"/>
<line x1="567" y1="184" x2="505" y2="326" stroke="#374151" stroke-width="1.4" marker-end="url(#arr)" stroke-dasharray="6 4"/>
<line x1="707" y1="212" x2="505" y2="326" stroke="#374151" stroke-width="1.4" marker-end="url(#arr)" stroke-dasharray="6 4"/>
<line x1="410" y1="352" x2="410" y2="420" stroke="#374151" stroke-width="1.4" marker-end="url(#arr)" stroke-dasharray="6 4"/><text x="414" y="380" class="guard">«use»</text>
<line x1="147" y1="192" x2="410" y2="420" stroke="#374151" stroke-width="1.4" marker-end="url(#arr)" stroke-dasharray="6 4"/>
<line x1="567" y1="184" x2="410" y2="420" stroke="#374151" stroke-width="1.4" marker-end="url(#arr)" stroke-dasharray="6 4"/>
<text x="40" y="560" class="note">PKG-CORE : routage, statuts, RDV, duplicatas, imports, notifications (lib/*)</text>
    <text x="40" y="578" class="note">Chaque package métier s'appuie sur PKG-AUTH et PKG-CORE</text>
  </svg>