<svg xmlns="http://www.w3.org/2000/svg" width="700" height="510" viewBox="0 0 700 510">
    <defs><style>
    .title { fill: #1F2937; font: 700 16px Arial, Helvetica, sans-serif; }
    .act { fill: #111827; font: 12px Arial, Helvetica, sans-serif; text-anchor: middle; }
    .dec { fill: #111827; font: 11px Arial, Helvetica, sans-serif; text-anchor: middle; }
    .guard { fill: #374151; font: 10px Arial, Helvetica, sans-serif; font-style: italic; }
    .swim { fill: #059669; font: 700 13px Arial, Helvetica, sans-serif; }
    .note { fill: #64748B; font: 10px Arial, Helvetica, sans-serif; text-anchor: middle; }
  </style></defs>
    <marker id="arrow" markerWidth="8" markerHeight="8" refX="6" refY="4" orient="auto">
      <polygon points="0,0 8,4 0,8" fill="#374151"/>
    </marker>
    <rect width="700" height="510" fill="#FFFFFF"/>
    <text x="350" y="26" text-anchor="middle" class="title">Activité — Authentifier (agent centre)</text>
    <text x="350" y="44" text-anchor="middle" class="note">Connexion /auth/login/centre-examen</text>
    <rect x="32" y="48" width="636" height="454" fill="#F0FDF4" fill-opacity="0.35" stroke="#059669" stroke-width="1.5"/>
    <text x="44" y="70" class="swim">Agent centre d'examen</text>
    
    <circle cx="350" cy="58" r="8" fill="#111827"/>
<rect x="245" y="98" width="210" height="46" rx="10" ry="10" fill="#F8FAFC" stroke="#111827" stroke-width="1.6"/><text x="350" y="118" class="act">Accéder portail centre</text><text x="350" y="132" class="act">d'examen</text>
<rect x="245" y="176" width="210" height="46" rx="10" ry="10" fill="#F8FAFC" stroke="#111827" stroke-width="1.6"/><text x="350" y="196" class="act">Saisir identifiants</text><text x="350" y="210" class="act">agent</text>
<rect x="245" y="254" width="210" height="46" rx="10" ry="10" fill="#F8FAFC" stroke="#111827" stroke-width="1.6"/><text x="350" y="274" class="act">Vérifier rôle</text><text x="350" y="288" class="act">AGENT_CENTRE_EXAMEN</text>
<rect x="245" y="332" width="210" height="46" rx="10" ry="10" fill="#F8FAFC" stroke="#111827" stroke-width="1.6"/><text x="350" y="352" class="act">Rediriger vers</text><text x="350" y="366" class="act">/centre-examen</text>
<circle cx="350" cy="420" r="10" fill="none" stroke="#111827" stroke-width="1.8"/><circle cx="350" cy="420" r="6" fill="#111827"/>
    <line x1="350" y1="68" x2="350" y2="96" stroke="#374151" stroke-width="1.4" marker-end="url(#arrow)"/>
<line x1="350" y1="146" x2="350" y2="174" stroke="#374151" stroke-width="1.4" marker-end="url(#arrow)"/>
<line x1="350" y1="224" x2="350" y2="252" stroke="#374151" stroke-width="1.4" marker-end="url(#arrow)"/>
<line x1="350" y1="302" x2="350" y2="330" stroke="#374151" stroke-width="1.4" marker-end="url(#arrow)"/>
<line x1="350" y1="380" x2="350" y2="408" stroke="#374151" stroke-width="1.4" marker-end="url(#arrow)"/>
  </svg>